<?xml version="1.0" standalone="no"?>
<!DOCTYPE svg PUBLIC "-//W3C//DTD SVG 1.1//EN" "http://www.w3.org/Graphics/SVG/1.1/DTD/svg11.dtd" >
<!--
2013-9-30: Created.
-->
<svg>
<metadata>
Created by iconfont
</metadata>
<defs>

<font id="crm-icon-font" horiz-adv-x="1024" >
  <font-face
    font-family="crm-icon-font"
    font-weight="500"
    font-stretch="normal"
    units-per-em="1024"
    ascent="896"
    descent="-128"
  />
    <missing-glyph />
    
    <glyph glyph-name="disable" unicode="&#58977;" d="M511.97645323-65.31715137000003c214.34651192 0 398.84389541 151.40930273 440.6625 361.63779082 41.81860459 210.22848808-70.69186055 420.7238376-268.71802296 502.74941836C485.88953487 881.09825596 257.49098809 811.81395322 138.40581377 633.59302295 19.32848808 455.37209268 42.72063945 217.84273212999994 194.28691836 66.27906972000005a447.8886624 447.8886624 0 0 1 317.68953487-131.59360459zM220.26656972 141.90523212999994a377.5238376 377.5238376 0 0 0-87.38110459 242.07122109c0 146.95377891 84.92441836 280.66918623 217.93604678 343.13546514 133.01162754 62.46627891 290.14534863 42.42819727 403.22616241-51.42296514z m452.86482569-101.06162754c-133.01162754-62.46627891-290.14534863-42.42819727-403.22354678 51.42296514L803.6863376 626.0476743199999a377.5238376 377.5238376 0 0 0 87.38110459-242.07122109c0-146.9511624-84.92180273-280.66656972-217.93604678-343.13284864z"  horiz-adv-x="1024" />

    
    <glyph glyph-name="jpg" unicode="&#58954;" d="M698.435 834l180-180v-675a45 45 0 0 0-45-45h-630a45 45 0 0 0-45 45V789a45 45 0 0 0 45 45h495zM341 452.7825h-37.5975v-153.9675c0-16.38-2.9025-28.2825-8.685-35.6625-5.7825-7.4025-15.12-11.25-27.6525-11.25-22.815 0-34.065 13.1625-34.065 39.5325V298.5H195.4025v-7.4025c0-22.5 6.0975-40.1625 18.315-53.0325 11.88-12.8475 29.565-19.2825 52.7175-19.2825 26.6625 0 45.9675 6.75 58.1625 20.25 10.935 12.87 16.4025 32.1525 16.4025 58.5v155.25z m355.185 4.5c-34.0875 0-61.0875-11.565-81-35.3475-18.9675-22.185-28.2825-50.4675-28.2825-84.87 0-34.065 9.315-62.0325 28.2825-83.565 20.25-23.1525 48.5325-34.7175 85.1625-34.7175 20.5875 0 38.9025 2.565 55.62 7.7175a132.75 132.75 0 0 1 41.7825 21.8475v97.0875h-98.3475v-32.1525h60.75v-47.25c-7.7175-4.5-15.75-8.0325-24.75-10.5975a119.34 119.34 0 0 0-30.87-3.87c-27.9675 0-48.5325 7.7175-61.7175 23.1525-12.2175 14.4675-18.315 35.3475-18.315 62.3475 0 28.2825 6.75 49.8375 20.565 65.25 12.5325 14.7825 29.5875 21.87 51.12 21.87 17.3475 0 31.5-3.5325 42.0975-10.935 10.2825-7.4025 17.37-18.315 20.565-33.0975h37.935c-4.185 25.695-14.4675 44.6625-30.8475 57.5325-17.0325 13.1625-40.185 19.5975-69.75 19.5975z m-215.0325-4.5H386v-229.5h37.5975v88.065H480.5c55.935 0 83.9025 23.805 83.9025 71.055 0 46.9125-27.9675 70.38-83.25 70.38zM478.25 420.675c16.4025 0 28.5975-2.9025 36.315-9 7.7175-5.805 11.9025-15.435 11.9025-29.25 0-13.8375-3.87-23.805-11.565-29.9025-7.7175-5.7825-19.935-9-36.6525-9h-54.6525v77.1525H478.25zM698.435 834l180-180h-135a45 45 0 0 0-45 45V834z"  horiz-adv-x="1024" />

    
    <glyph glyph-name="png" unicode="&#58955;" d="M698.435 834l180-180v-675a45 45 0 0 0-45-45h-630a45 45 0 0 0-45 45V789a45 45 0 0 0 45 45h495z m27.9675-376.7175c-34.0875 0-61.0875-11.565-81-35.3475-18.9675-22.185-28.305-50.4675-28.305-84.87 0-34.065 9.3375-62.0325 28.305-83.565 20.25-23.1525 48.5325-34.7175 85.1625-34.7175 20.5875 0 38.9025 2.565 55.62 7.7175a132.75 132.75 0 0 1 41.7825 21.8475v97.0875H729.575v-32.1525h60.75v-47.25c-7.695-4.5-15.75-8.0325-24.75-10.5975a119.34 119.34 0 0 0-30.8475-3.87c-27.9675 0-48.5325 7.7175-61.7175 23.1525-12.2175 14.4675-18.315 35.3475-18.315 62.3475 0 28.2825 6.75 49.8375 20.565 65.25 12.5325 14.7825 29.565 21.87 51.12 21.87 17.3475 0 31.5-3.5325 42.0975-10.935 10.2825-7.4025 17.3475-18.315 20.565-33.0975H827c-4.185 25.695-14.4675 44.6625-30.8475 57.5325-17.055 13.1625-40.185 19.5975-69.75 19.5975z m-418.185-4.5H213.065v-229.5h37.62v88.065h56.88c55.935 0 83.9025 23.805 83.9025 71.055 0 46.9125-27.9675 70.38-83.25 70.38z m136.935 0h-37.62v-229.5h37.62v167.7825h1.2825l114.75-167.7825h36.63v229.5H559.925V287.25h-1.305l-113.445 165.5325z m-139.8375-32.13c16.4025 0 28.62-2.9025 36.3375-9 7.695-5.805 11.88-15.435 11.88-29.25 0-13.8375-3.8475-23.805-11.565-29.9025-7.7175-5.7825-19.935-9-36.6525-9H250.685v77.1525h54.63zM698.435 834l180-180h-135a45 45 0 0 0-45 45V834z"  horiz-adv-x="1024" />

    
    <glyph glyph-name="undercarriage" unicode="&#58956;" d="M711.09285752 605.59285752h126.77142832c15.87857168 0 29.18571416-12.66428584 30.72857168-29.31428584l18.9-199.02857168h-62.29285752l-15.42857168 163.09285752h-98.6785708V442.5c0-18-13.88571416-32.65714248-30.98571504-32.65714248a31.82142832 31.82142832 0 0 0-30.92142832 32.65714248V540.34285752H401.55714248V442.5c0-18-13.82142832-32.65714248-30.92142832-32.65714248a31.82142832 31.82142832 0 0 0-30.92142832 32.65714248V540.34285752H240.97142832l-49.49999999-522h333.89999999v-65.25H157.20714248a30.21428584 30.21428584 0 0 0-22.95 10.73571416 33.75 33.75 0 0 0-7.84285664 25.13571416l55.73571416 587.31428584a31.62857168 31.62857168 0 0 0 30.79285752 29.31428584H339.71428584v22.82142832C339.71428584 741.55714248 422.38571416 834 525.37142832 834c102.98571416 0 185.72142832-92.44285752 185.7214292-205.58571416v-22.88571416 0.06428584z m-61.90714336 0v22.82142832c0 77.91428584-55.86428584 140.33571416-123.81428584 140.33571416s-123.81428584-62.42142832-123.81428584-140.33571416v-22.88571417h247.62857168v0.06428585z m194.78571417-485.48571504c7.71428584 8.87142832 19.35 12.53571416 30.34285751 9.57857168a31.82142832 31.82142832 0 0 0 22.5-23.59285664 33.75 33.75 0 0 0-9.06428584-32.01428584l-123.81428584-130.5a29.82857167 29.82857167 0 0 0-43.71428584 0l-123.81428584 130.5a33.81428584 33.81428584 0 0 0-8.48571416 31.69285664 31.82142832 31.82142832 0 0 0 22.11428584 23.33571416 29.89285752 29.89285752 0 0 0 30.08571416-8.93571416l70.9714292-74.8285708v234c0 18 13.82142832 32.65714248 30.92142832 32.65714248s30.98571416-14.65714248 30.98571416-32.65714248v-234l70.97142832 74.8285708z"  horiz-adv-x="1024" />

    
    <glyph glyph-name="grounding" unicode="&#58958;" d="M711.09285752 605.59285752h126.77142832c15.87857168 0 29.18571416-12.66428584 30.72857168-29.31428584l18.9-199.02857168h-62.29285752l-15.42857168 163.09285752h-98.6785708V442.5c0-18-13.88571416-32.65714248-30.98571504-32.65714248a31.82142832 31.82142832 0 0 0-30.92142832 32.65714248V540.34285752H401.55714248V442.5c0-18-13.82142832-32.65714248-30.92142832-32.65714248a31.82142832 31.82142832 0 0 0-30.92142832 32.65714248V540.34285752H240.97142832l-49.49999999-522h333.89999999v-65.25H157.20714248a30.21428584 30.21428584 0 0 0-22.95 10.73571416 33.75 33.75 0 0 0-7.84285664 25.13571416l55.73571416 587.31428584a31.62857168 31.62857168 0 0 0 30.79285752 29.31428584H339.71428584v22.82142832C339.71428584 741.55714248 422.38571416 834 525.37142832 834c102.98571416 0 185.72142832-92.44285752 185.7214292-205.58571416v-22.88571416 0.06428584z m-61.90714336 0v22.82142832c0 77.91428584-55.86428584 140.33571416-123.81428584 140.33571416s-123.81428584-62.42142832-123.81428584-140.33571416v-22.88571417h247.62857168v0.06428585z m194.78571417-479.76428585c7.71428584-8.80714248 19.35-12.47142832 30.34285751-9.51428583a31.82142832 31.82142832 0 0 1 22.5 23.59285664 33.75 33.75 0 0 1-9.06428584 32.01428584l-123.81428584 130.5a29.82857167 29.82857167 0 0 1-43.71428584 0l-123.81428584-130.5a33.81428584 33.81428584 0 0 1-8.48571416-31.75714248 31.82142832 31.82142832 0 0 1 22.11428584-23.27142832 29.89285752 29.89285752 0 0 1 30.08571416 8.87142832l70.9714292 74.89285664v-234c0-18 13.82142832-32.65714248 30.92142832-32.65714248a31.82142832 31.82142832 0 0 1 30.98571416 32.65714248v234l70.97142832-74.89285664v0.06428583z"  horiz-adv-x="1024" />

    
    <glyph glyph-name="all-select" unicode="&#58959;" d="M804.571429 822.857143c73.142857 0 146.285714-73.142857 146.285714-146.285714v-585.142858c0-73.142857-73.142857-146.285714-146.285714-146.285714H219.428571c-73.142857 0-146.285714 73.142857-146.285714 146.285714V676.571429c0 73.142857 73.142857 146.285714 146.285714 146.285714z m0-73.142857H219.428571c-32.914286 0-73.142857-40.228571-73.142857-73.142857v-585.142858c0-32.841143 40.228571-73.142857 73.142857-73.142857h585.142858c32.768 0 73.142857 40.301714 73.142857 73.142857V676.571429c0 32.914286-40.374857 73.142857-73.142857 73.142857z m-3.876572-131.364572c11.117714-16.676571 16.676571-16.676571 16.676572-16.676571l-1.462858-1.170286c-19.017143-16.091429-226.523429-195.730286-343.186285-471.332571C367.177143 240.34742900000003 228.205714 368.201143 228.205714 368.201143l61.147429 55.588571s127.780571-100.059429 144.530286-111.177143c33.353143 44.470857 250.148571 250.148571 366.811428 305.737143z"  horiz-adv-x="1024" />

    
    <glyph glyph-name="product-level" unicode="&#58960;" d="M512.50624209 833.9859375a41.34310401 41.34310401 0 0 1-24.5246168-7.36863487L88.44411817 610.4519302799999a51.91793877 51.91793877 0 0 1-19.63094327-68.7926751c4.94992266-7.31238575 12.26230839-14.73726973 19.63094327-19.63094327l399.53750712-218.58408457c7.31238575-4.94992266 14.73726973-7.36863487 24.5246168-7.36863486a41.34310401 41.34310401 0 0 1 24.52461679 7.31238574l399.53750714 218.64033369a51.91793877 51.91793877 0 0 1 19.57469414 68.7926751 74.69883281 74.69883281 0 0 1-19.57469414 19.68719239L537.03085888 829.03601484A86.90489209 86.90489209 0 0 1 512.50624209 833.9859375m0-68.7926751l362.80683106-198.95314131-362.80683106-198.9531413-362.80683105 198.9531413 362.80683105 198.95314131z m-22.04965547-646.02115576L73.76309756 355.02467138c-9.84359619 4.89367354-14.73726973 17.15598193-7.36863487 26.99957813v2.47496133l9.78734708 19.63094326c4.89367354 9.84359619 17.15598193 14.73726973 29.41829033 9.84359619l406.90614199-228.48392988 406.90614199 228.48392988c9.78734707 4.89367354 24.5246168 2.41871221 29.41829033-9.84359618l9.78734707-19.68719239c4.89367354-12.26230839 2.47496133-24.5246168-9.78734707-31.89325166l-416.69348906-235.79631563c-14.73726973-4.94992266-29.41829033-4.94992266-41.68059873 2.41871221m0-179.26594893L73.76309756 175.70247333999998c-9.84359619 7.31238575-14.73726973 19.68719239-9.8435962 31.89325166l9.8435962 19.68719239c7.31238575 9.78734707 19.57469414 12.26230839 31.83700254 7.31238573l406.90614199-228.37143164 406.90614199 228.37143165c9.78734707 4.94992266 24.5246168 2.47496133 29.41829033-9.78734707l9.78734707-19.68719239c4.89367354-12.26230839 2.47496133-24.5246168-9.78734707-31.89325166l-416.69348906-235.79631563c-14.73726973-4.89367354-29.41829033-4.89367354-41.68059873 2.47496133"  horiz-adv-x="1024" />

    
    <glyph glyph-name="person-setting" unicode="&#58961;" d="M768-54.85714299999995A183.003429 183.003429 0 0 0 585.142857 128V237.71428600000002H438.857143v-109.641143c0-100.790857-81.993143-182.857143-182.857143-182.857143a183.003429 183.003429 0 0 0-182.784 182.857143c0 100.790857 81.993143 182.857143 182.857143 182.857143H365.714286V457.142857H255.853714A183.003429 183.003429 0 0 0 73.142857 640c0 100.790857 81.993143 182.784 182.857143 182.784 100.790857 0 182.784-81.993143 182.784-182.857143V530.285714h146.285714V640.146286C584.996571 740.864 666.916571 822.857143 767.780571 822.857143c100.790857 0 182.857143-81.993143 182.857143-182.857143 0-100.790857-82.066286-182.784-182.857143-182.784H658.212571v-146.285714h109.714286A182.930286 182.930286 0 0 0 768-54.85714299999995zM658.285714 237.71428600000002v-109.641143c0-60.489143 49.152-109.714286 109.641143-109.714286 60.489143 0 109.714286 49.225143 109.714286 109.714286s-49.225143 109.714286-109.714286 109.714286h-109.714286zM256 237.71428600000002C195.364571 237.71428600000002 146.285714 188.63542900000004 146.285714 128.14628600000003c0-60.489143 49.152-109.714286 109.714286-109.714286 60.416 0 109.714286 49.225143 109.714286 109.714286v109.714285H256zM438.857143 310.85714299999995h146.285714V457.142857H438.857143v-146.285714z m219.428571 219.428571h109.641143a109.787429 109.787429 0 0 1 0.073143 219.428572C707.510857 749.714286 658.285714 700.562286 658.285714 640V530.285714zM256 749.714286C195.364571 749.714286 146.285714 700.489143 146.285714 640 146.285714 579.657143 195.437714 530.285714 256 530.285714H365.714286V640A109.714286 109.714286 0 0 1 256 749.714286z"  horiz-adv-x="1024" />

    
    <glyph glyph-name="file-save" unicode="&#58962;" d="M833.37499971 834C904.4 834 962 776.4 962 705.37499971v-642.74999942c0-71.02500029-57.6-128.62500029-128.62500029-128.62500029h-642.74999942A128.54999971 128.54999971 0 0 0 62 62.62500029v642.74999942C62 776.4 119.6 834 190.62500029 834z m-578.25-64.19999971h-64.42499971a64.50000029 64.50000029 0 0 1-64.50000029-64.50000029v-642.89999971c0-17.17499971 6.75-33.22500029 18.97500058-45.37500029 12.15-12.15 28.35-18.74999971 45.52499971-18.74999971h642.97500029a64.125 64.125 0 0 1 64.125 64.125V705.37499971a64.35 64.35 0 0 1-64.27500029 64.42500058H769.24999971v-257.32500029a64.27500029 64.27500029 0 0 0-64.35-64.27500029H319.10000029a64.125 64.125 0 0 0-64.05000029 64.27500029V769.72499971z m447.75-2.25H321.49999971v-252.9h381.375V767.5500002900001zM576.50000029 706.49999971c18.29999971 0 33.22500029-14.85 33.22499942-33.22499942v-64.27500029a33.22500029 33.22500029 0 1 0-66.44999971 0v64.27500029c0 18.37500029 14.85 33.22500029 33.22500029 33.22499942z"  horiz-adv-x="1024" />

    
    <glyph glyph-name="upload" unicode="&#58963;" d="M224 795.42857156c37.71428531 0 72-16.32 92.57142844-48.96l82.28571469-114.30857156c6.85714313-9.80571469 20.57142844-16.32 34.28571374-16.32h449.14285782c61.71428531 0 109.71428531-45.73714312 109.71428531-104.50285688v-434.26285781c0-58.76571469-48-104.50285687-109.71428531-104.50285687H141.71428531C80-27.428571560000023 32 18.30857156000002 32 77.07428531000005V690.92571469C32 749.69142844 80 795.42857156 141.71428531 795.42857156z m0-65.28H141.71428531c-20.57142844 0-41.14285687-16.32-41.14285687-39.22285687v-613.85142938c0-19.61142844 17.14285687-39.22285687 41.14285687-39.22285687h740.57142938c20.57142844 0 41.14285687 16.32 41.14285687 39.22285687v437.48571469a40.73142844 40.73142844 0 0 1-41.14285687 39.22285688H433.14285687c-37.71428531 0-72 16.32-92.57142843 45.73714312L258.28571469 713.82857156a42.92571469 42.92571469 0 0 1-34.28571469 16.32z m277.71428531-271.06285687c3.42857156 6.51428531 13.71428531 6.51428531 17.14285782 0l113.14285687-140.36571469c6.85714313-6.58285688 0-16.32-6.85714312-16.32H546.28571469v-163.26857156c0-19.61142844-13.71428531-32.70857156-34.28571469-32.70857157s-34.28571469 13.02857156-34.28571469 32.70857157v163.2H395.42857156c-6.85714313 0-10.28571469 9.80571469-6.85714312 16.38857156z m373.71428625 290.60571375c20.57142844 0 34.28571469-13.02857156 34.28571375-32.64s-13.71428531-32.64-34.28571375-32.64H512c-20.57142844 0-34.28571469 13.02857156-34.28571469 32.64s13.71428531 32.64 34.28571469 32.64z"  horiz-adv-x="1024" />

    
    <glyph glyph-name="search" unicode="&#58965;" d="M476.17365333 820.90666667c-175.92775111 0-331.32088889-112.28501333-383.23996444-276.85319112-51.84625778-164.56817778 11.86929778-342.97173333 157.2864-440.0378311a408.14364445 408.14364445 0 0 1 475.93699556 17.18499555l168.35470222-164.71381333a32.25827555 32.25827555 0 0 1 45.29265778 0 30.72910222 30.72910222 0 0 1 0 43.69066666l-167.69934223 164.13127112a385.57013333 385.57013333 0 0 1 70.99733333 422.78001777C779.02279111 729.37472 634.98922667 821.12512 476.17365333 820.90666667z m0-722.78926222c-186.34069333 0-337.36476445 147.82008889-337.36476444 330.22862222 0 182.33571555 151.02407111 330.15580445 337.36476444 330.15580444s337.36476445-147.82008889 337.36476445-330.15580444a326.66055111 326.66055111 0 0 0-98.81372445-233.52661334 341.07847111 341.07847111 0 0 0-238.55104-96.70200888z"  horiz-adv-x="1024" />

    
    <glyph glyph-name="unwind-right" unicode="&#58966;" d="M146.285714 787.236571v-806.473142c0-19.017143 18.651429-35.547429 39.936-35.547429 21.357714 0 40.009143 16.603429 40.009143 35.547429V787.236571c0 19.017143-18.651429 35.547429-40.009143 35.547429C164.937143 822.857143 146.285714 806.180571 146.285714 787.236571z m643.291429-393.874285l-275.309714-358.180572c-13.312-16.603429-8.045714-38.034286 10.605714-49.737143a42.715429 42.715429 0 0 1 56.100571 9.435429l288.694857 377.124571c10.678857 11.922286 10.678857 28.525714 0 42.642286L578.56 784.822857c-13.312 16.676571-37.449143 19.017143-56.100571 9.508572-18.724571-9.508571-21.357714-33.206857-10.678858-49.737143l277.796572-351.085715z"  horiz-adv-x="1024" />

    
    <glyph glyph-name="unwind-left" unicode="&#58967;" d="M877.714286 787.236571v-806.473142c0-19.017143-18.797714-35.547429-40.082286-35.547429-21.357714 0-40.009143 16.603429-40.009143 35.547429V787.236571c0 19.017143 18.651429 35.547429 40.009143 35.547429 21.284571 0 40.009143-16.603429 40.009143-35.547429zM234.203429 393.362286l275.309714-358.180572c13.312-16.603429 8.045714-38.034286-10.605714-49.737143a42.715429 42.715429 0 0 0-56.100572 9.435429L154.185143 372.00457100000006c-10.605714 11.922286-10.605714 28.525714 0 42.642286l291.108571 370.102857c13.312 16.676571 37.449143 19.017143 56.100572 9.508572 18.724571-9.508571 21.357714-33.206857 10.678857-49.737143l-277.796572-351.085714z"  horiz-adv-x="1024" />

    
    <glyph glyph-name="cancel" unicode="&#58968;" d="M593.00074971 475.50000029H198.72575l191.54999971 206.1a45.15000029 45.15000029 0 0 1 12.67500058 31.57499971 45.15000029 45.15000029 0 0 1-12.67500058 31.57499971c-16.875 18.37500029-39.44999971 19.35-56.39999942 0.75000058L74.67575029 469.5A42.75 42.75 0 0 1 62.00074971 438.74999971a42.75 42.75 0 0 1 12.67500058-30.6l259.2-276.525c16.875-18.37500029 39.44999971-18.37500029 56.39999942 0.07500058a43.04999971 43.04999971 0 0 1 0 61.04999971L198.65075029 395.17500029h394.425c157.725 0 295.27499971-134.25000029 295.27499971-300.15v-42.975c0-24.67500029 14.24999971-43.04999971 36.74999971-43.05000058 22.57499971 0 36.9 18.37500029 36.9 43.05000058v42.975C962.00074971 310.12500029 795.87575 475.50000029 593.00074971 475.50000029z"  horiz-adv-x="1024" />

    
    <glyph glyph-name="change" unicode="&#58969;" d="M939.154286 409.892571c6.436571 0 11.702857-4.534857 11.702857-10.24v-158.500571c0-98.742857-90.624-179.2-203.556572-180.809143H297.252571v-104.886857c0-4.022857-2.633143-7.753143-6.875428-9.435429a12.946286 12.946286 0 0 0-12.653714 1.828572l-200.630858 154.697143A9.654857 9.654857 0 0 0 73.142857 110.22628599999996c0 2.925714 1.462857 5.632 3.949714 7.606857L277.942857 272.53028600000005a12.946286 12.946286 0 0 0 12.507429 1.682285c4.169143-1.682286 6.875429-5.339429 6.875428-9.289142v-123.099429h446.537143c62.244571 0 112.64 43.593143 113.737143 97.645714v160.182857c0 5.778286 5.12 10.24 11.629714 10.24h69.924572zM738.304 822.857143a12.434286 12.434286 0 0 0 7.826286-2.486857l200.704-154.770286a9.654857 9.654857 0 0 0 3.949714-7.606857c0-2.925714-1.462857-5.705143-3.949714-7.606857l-200.704-154.697143a12.946286 12.946286 0 0 0-12.580572-1.755429c-4.242286 1.609143-6.875429 5.339429-6.875428 9.362286V626.3954289999999H280.210286c-62.171429 0-112.64-43.52-113.664-97.645715v-160.182857c0-5.705143-5.12-10.166857-11.702857-10.166857h-69.924572c-6.436571 0-11.629714 4.534857-11.629714 10.166857V527.067429c0 98.742857 90.770286 179.2 203.483428 180.809142h449.974858V812.6171429999999c0 5.705143 5.339429 10.166857 11.702857 10.166857z"  horiz-adv-x="1024" />

    
    <glyph glyph-name="enable" unicode="&#58970;" d="M512 822.857143c241.371429 0 438.857143-197.485714 438.857143-438.857143s-197.485714-438.857143-438.857143-438.857143-438.857143 197.485714-438.857143 438.857143 197.485714 438.857143 438.857143 438.857143z m0-73.142857C311.076571 749.714286 146.285714 584.9234289999999 146.285714 384s164.790857-365.714286 365.714286-365.714286 365.714286 164.790857 365.714286 365.714286-164.790857 365.714286-365.714286 365.714286z m-70.582857-178.761143l3.437714-1.974857 214.893714-166.765715c3.584-4.169143 8.996571-12.434286 8.996572-18.724571a20.992 20.992 0 0 0-4.022857-13.458286l-3.145143-3.218285-214.966857-166.765715a23.113143 23.113143 0 0 0-10.752-4.096c-3.584 0-7.094857 0-8.923429 1.974857a22.674286 22.674286 0 0 0-8.557714 14.043429l-0.438857 4.754286v333.531428c0 7.606857 3.364571 14.628571 8.996571 18.724572a14.336 14.336 0 0 0 14.482286 1.974857z m33.060571-96.548572v-181.174857l116.736 90.550857-116.736 90.624z"  horiz-adv-x="1024" />

    
    <glyph glyph-name="product-manage" unicode="&#58971;" d="M182.7125 2.0625l0.28125 594.16875h659.25V2.0625H182.65625zM619.4375 658.3875H404.61875c0 59.625 48.15 108 107.38125 108s107.4375-48.375 107.4375-108z m215.04375 0h-143.4375C690.9875 757.6125 610.71875 834 512 834 413.225 833.8875 333.125 757.78125 333.0125 658.3875h-143.4375C150.2 658.33125 118.25 626.2125 118.25 586.6125v-576.45c0-39.6 32.00625-71.775 71.325-71.775h644.85A71.6625 71.6625 0 0 1 905.75 10.162500000000023V586.6125c0 39.6-31.95 71.71875-71.325 71.775z m-137.5875-398.41875a35.83125 35.83125 0 0 1-21.825-16.7625c-32.0625-55.575-91.96875-88.65-155.8125-88.81875-63.95625 0.1125-125.26875 33.1875-157.33125 88.875a35.775 35.775 0 0 1-31.05 18.16875c-12.825 0-22.5-5.68125-28.85625-16.875a36.16875 36.16875 0 0 1 0.1125-36.16875c44.94375-77.79375 127.6875-116.83125 217.125-117.05625 89.4375 0.16875 171.95625 39.20625 216.9 117.05625a36.1125 36.1125 0 0 1-13.10625 49.1625c-8.15625 4.8375-16.9875 4.89375-26.15625 2.41875z"  horiz-adv-x="1024" />

    
    <glyph glyph-name="customer-info" unicode="&#58972;" d="M505.928992 385.15525371a33.14368828 33.14368828 0 0 1 4.99964149 0.33705527h1.68527198a222.34358935 222.34358935 0 0 1 158.41559443 65.66944307 222.96152285 222.96152285 0 0 1 65.61326778 158.58412119 222.90534668 222.90534668 0 0 1-65.61326778 158.58412207A222.34358935 222.34358935 0 0 1 512.61390547 833.99943838 222.39976552 222.39976552 0 0 1 354.25448721 768.27381914a222.96152285 222.96152285 0 0 1-65.55709161-158.5279459A222.96152285 222.96152285 0 0 1 376.16302637 431.89347188 442.04691885 442.04691885 0 0 1 192.13129355 321.11490732000004 442.83337998 442.83337998 0 0 1 62.140625 6.867803030000005c0-13.93158427 0.61793349-27.86316855 1.9099749-41.68240137a33.03133682 33.03133682 0 1 1 65.72561924 6.12315615 386.99469141 386.99469141 0 0 0-1.68527197 35.55924521c0 208.58053271 169.53839122 378.23127539 377.83804483 378.2312754z m6.74108964 382.78151103a158.2470668 158.2470668 0 0 0 157.96618857-158.19089149A158.2470668 158.2470668 0 0 0 512.67008164 451.55498174a158.2470668 158.2470668 0 0 0-158.02236474 158.19089151A158.2470668 158.2470668 0 0 0 512.67008164 767.93676474z m426.65476553-531.42252539l-188.41344082 140.04612598a46.6258667 46.6258667 0 0 1-27.6946418 8.98811895 46.6258667 46.6258667 0 0 1-27.69464091-8.98811895L507.05250752 236.51423935000003a55.445458 55.445458 0 0 1-21.34678271-42.52503779v-215.15309473c0-23.76233877 19.26828018-43.03061894 42.97444365-43.03061806h389.01701777a43.08679424 43.08679424 0 0 1 42.97444278 43.03061806v215.15309473a55.445458 55.445458 0 0 1-21.34678184 42.52503779z m-40.50271055-246.7238625h-143.24814404v107.96977794c0 19.66150987-14.4933416 35.6154205-32.35722803 35.6154205-17.97623789 0-32.46957949-15.95391065-32.46957861-35.6154205v-107.96977794H546.48787871v206.95143604l176.72888584 123.58663419 175.60537207-123.58663419v-206.95143604z"  horiz-adv-x="1024" />

    
    <glyph glyph-name="customer-material" unicode="&#58975;" d="M504.07539102 834c129.29419073 0 234.19113047-105.57151787 234.19113135-235.87757666 0-122.88569677-93.31667666-223.84759482-212.49219287-234.80949375a28.89444112 28.89444112 0 0 0-7.70143624-1.01186806h-3.82261113a387.88257305 387.88257305 0 0 1-274.21611504-116.70206134 392.54840683 392.54840683 0 0 1-112.14865722-245.37788876h347.74515966c17.76389766 0 32.15490292-14.50343496 32.15490294-32.43597716v-0.78700781a32.32354747 32.32354747 0 0 0-32.15490294-32.43597802H94.21280527A32.26733261 32.26733261 0 0 0 62.0016875-33.00187354000002v0.78700782l0.39350391 5.28419707-0.11242969-5.0593377a458.88194883 458.88194883 0 0 0 310.08119941 435.21549083A235.70893213 235.70893213 0 0 0 269.99669023 598.06620849C269.94047539 728.42848213 374.72498545 834 504.07539102 834z m425.15302939-514.53466612c17.8201125 0 32.21111777-14.61586464 32.21111865-32.43597714v-319.91880059a32.26733261 32.26733261 0 0 0-32.21111865-32.43597803h-317.61399111a32.26733261 32.26733261 0 0 0-32.21111777 32.43597803v319.86258575c0 17.98875703 14.39100528 32.492192 32.21111777 32.49219198z m-50.87445293-224.85946289l-234.58463438 0.05621485v-95.17176738h253.30418438v101.18675829a31.87382871 31.87382871 0 0 0-18.71955-6.07120576z m18.71955 159.98750772h-253.30418438v-95.11555254h234.58463438c6.97064326 0 13.43535293-2.24859463 18.71955-6.01499004v101.1867583zM504.07539102 769.18425967a168.08244873 168.08244873 0 0 1-120.07495284-50.03123027 170.8931918 170.8931918 0 0 1-49.69394121-121.03060606c0-45.6464707 17.59525312-88.59462803 49.69394121-120.91817637 32.04247324-32.21111777 74.70955635-50.03123027 120.07495284-50.03123027A168.08244873 168.08244873 0 0 1 624.15034472 477.14803213a170.8931918 170.8931918 0 0 1 49.69394122 120.91817636c0 45.70268555-17.59525312 88.65084287-49.69394122 120.97439122a168.47595263 168.47595263 0 0 1-120.0749537 50.03123027z"  horiz-adv-x="1024" />

    
    <glyph glyph-name="list-auth" unicode="&#58976;" d="M882.28571469 589.7142853099999a41.14285687 41.14285687 0 0 1 41.14285687 41.14285781V754.28571469a41.14285687 41.14285687 0 0 1-41.14285687 41.14285687H141.71428531a41.14285687 41.14285687 0 0 1-41.14285687-41.14285687v-123.42857157a41.14285687 41.14285687 0 0 1 41.14285687-41.14285781h740.57142938zM854.85714312 658.28571469H169.14285688V726.85714312h685.71428625v-68.57142843z m27.42857157-342.85714313a41.14285687 41.14285687 0 0 1 41.14285687 41.14285688V480a41.14285687 41.14285687 0 0 1-41.14285687 41.14285687H141.71428531a41.14285687 41.14285687 0 0 1-41.14285687-41.14285687v-123.42857156a41.14285687 41.14285687 0 0 1 41.14285687-41.14285688h740.57142938zM854.85714312 384H169.14285688V452.57142844h685.71428625v-68.57142844z m-133.02857156-400.45714313l191.04 186.92571469a33.6 33.6 0 0 1 0.89142844 48 35.38285688 35.38285688 0 0 1-49.09714312-0.82285687l-142.90285688-139.74857157a36 36 0 0 0-49.92 0l-47.58857156 46.49142844a35.38285688 35.38285688 0 0 1-49.02857156 0.89142844 33.6 33.6 0 0 1 0.82285781-48l51.90857062-50.74285688 24.96-24.48 21.94285782-21.46285781c12.06857156-11.79428531 33.18857156-10.42285687 46.97142843 3.01714313zM470.85714313-27.428571560000023a41.14285687 41.14285687 0 0 1 41.14285687 41.14285687v123.42857157a41.14285687 41.14285687 0 0 1-41.14285687 41.14285781H141.71428531a41.14285687 41.14285687 0 0 1-41.14285687-41.14285781v-123.42857157a41.14285687 41.14285687 0 0 1 41.14285687-41.14285687h329.14285782zM443.42857156 41.142856879999954H169.14285688v68.57142843h274.28571468v-68.57142844z"  horiz-adv-x="1024" />

    
    <glyph glyph-name="customer-org" unicode="&#58978;" d="M512.65290078 833.99887763c59.78611758 0 115.97945362-23.29693769 158.25076524-65.68052343a222.75240644 222.75240644 0 0 0 65.56824843-158.41917686 222.80854395 222.80854395 0 0 0-65.56824843-158.47531347 222.19103497 222.19103497 0 0 0-158.30690186-65.68052344h-1.68411621a33.12094747 33.12094747 0 0 0-5.05234776-0.33682324c-208.10059805 0-377.46652852-169.53434209-377.46652851-377.9717625a386.33620606 386.33620606 0 0 1 1.68411621-35.53484766 33.00867334 33.00867334 0 1 0-65.68052344-6.1750916 441.79975898 441.79975898 0 0 0 32.95253584 214.50023877A442.52954209 442.52954209 0 0 0 192.27790479 321.46624747 441.8558956 441.8558956 0 0 0 376.23950703 432.1688042a222.80854395 222.80854395 0 0 0-87.40561992 177.73037314c0 59.8422542 23.24080019 116.14786523 65.51211182 158.47531348A222.24717247 222.24717247 0 0 0 512.65290078 833.99887763z m96.16302246-645.57779237c28.96679443 0 52.43214375-26.38448349 52.43214463-58.94405948v-134.72927841c0-15.60614151-5.55758261-30.65091065-15.38159326-41.65380177a49.62528458 49.62528458 0 0 0-37.05055137-17.29025771h-157.18415801a49.62528458 49.62528458 0 0 0-37.05055136 17.29025771A62.87366338 62.87366338 0 0 0 399.2557581-5.252252630000044v134.72927841c0 32.55957597 23.46534932 58.94405948 52.37600713 58.94405948h157.18415801z m299.435821 0c28.91065781 0 52.37600713-26.38448349 52.37600712-58.94405948v-134.72927841c0-32.55957597-23.46534932-58.94405948-52.37600712-58.94405948h-157.18415801a49.62528458 49.62528458 0 0 0-37.05055136 17.29025771 62.87366338 62.87366338 0 0 0-15.38159239 41.65380177v134.72927841c0 15.60614151 5.55758261 30.65091065 15.38159239 41.65380176a49.62528458 49.62528458 0 0 0 37.05055136 17.29025772h157.18415801z m-17.85162921-50.97257755H766.39304199c-8.25216855 0-14.93249502-7.52238457-14.93249502-16.84115946v-112.38667296c0-9.26263828 6.73646396-16.84115947 14.93249503-16.84115946h123.95093642c8.25216855 0 14.98863252 7.57852207 14.98863164 16.84115946v112.38667296c0 9.3187749-6.73646396 16.84115947-14.98863164 16.84115946z m-298.818312-1.45956708H470.55000166c-8.30830518 0-14.98863252-7.57852207-14.98863252-16.84115948v-110.81483173c0-9.26263828 6.73646396-16.84115947 14.98863252-16.84115948h121.08793886c3.92960391 0 7.80307031 1.74025283 10.60993038 4.94007363a17.9639042 17.9639042 0 0 1 4.37870215 11.90108585v110.81483173c0 9.26263828-6.73646396 16.84115947-14.98863252 16.84115948zM825.89847295 287.61551602c12.35018408 0 22.45487959-11.28357685 22.45487958-25.26173966V188.42108526000004h-55.57582704v42.10289911H567.94804209v-42.10289911H511.53015693v73.9326911c0 13.97816279 10.10469551 25.26173965 22.4548796 25.26173966h291.91343642zM512.65290078 767.98153096a158.13849023 158.13849023 0 0 1-157.91394111-158.08235362A158.13849023 158.13849023 0 0 1 512.65290078 451.81682461a158.13849023 158.13849023 0 0 1 157.8578045 158.08235273A158.13849023 158.13849023 0 0 1 512.65290078 767.98153096z"  horiz-adv-x="1024" />

    
    <glyph glyph-name="import" unicode="&#58981;" d="M305.298286 407.844571a29.915429 29.915429 0 0 0 43.008 3.657143l0.512-0.585143 132.754285-122.953142v503.222857a30.427429 30.427429 0 1 0 60.708572 0V287.45142899999996l132.754286 123.026285a29.549714 29.549714 0 0 0 43.154285-4.608 32.914286 32.914286 0 0 0-2.340571-43.812571L532.187429 192a29.622857 29.622857 0 0 0-40.667429 0L308.882286 362.642286a33.28 33.28 0 0 0-3.584 45.202285zM950.857143 755.858286v-753.371429a57.051429 57.051429 0 0 0-56.32-57.344H129.462857a57.051429 57.051429 0 0 0-56.32 57.417143V755.273143a56.685714 56.685714 0 0 0 56.32 57.417143h157.769143a31.378286 31.378286 0 0 0 28.891429-31.744 31.085714 31.085714 0 0 0-28.891429-31.817143h-152.868571v-739.986286h755.273142V748.6171429999999H729.965714a31.963429 31.963429 0 0 0 0 63.634286h164.571429a56.100571 56.100571 0 0 0 56.32-56.466286z"  horiz-adv-x="1024" />

    
    <glyph glyph-name="object-auth" unicode="&#58982;" d="M505.55428531 795.42857156c130.21714313 0 235.81714313-103.26857156 235.81714313-230.67428625 0-77.62285687-39.08571469-146.19428531-99.15428532-188.02285687a406.35428531 406.35428531 0 0 0 116.29714219-63.77142844 32.02285688 32.02285688 0 0 0 10.35428625-23.65714313 32.98285687 32.98285687 0 0 0-33.32571469-32.64 33.66857156 33.66857156 0 0 0-20.77714218 7.06285782S584.34285687 334.01142844000003 505.55428531 334.01142844000003c-185.00571469 0-335.10857156-145.78285687-336.89142844-326.33142844v-1.78285687a33.66857156 33.66857156 0 0 0-34.01142843-33.32571469 33.66857156 33.66857156 0 0 0-33.32571375 40.38857156c3.63428531 167.79428531 114.03428531 309.87428531 267.42857062 363.77142844a228.96 228.96 0 0 0-99.08571375 188.02285687C269.66857156 692.16 375.26857156 795.42857156 505.55428531 795.42857156z m367.54285781-581.07428625a30.30857156 30.30857156 0 0 0 42.03428532 0.68571469 28.8 28.8 0 0 0-0.75428532-41.14285688L750.62857156 13.714285310000037c-11.79428531-11.52-29.89714312-12.61714313-40.25142844-2.53714218l-18.78857156 18.37714218-21.39428625 20.98285782-44.50285687 43.47428531a28.8 28.8 0 0 0-0.75428532 41.14285687 30.30857156 30.30857156 0 0 0 42.10285688-0.68571375l40.73142844-39.90857156a30.85714312 30.85714312 0 0 1 42.85714312 0zM505.48571469 729.6c-93.05142844 0-168.48-73.78285687-168.48-164.77714313 0-91.06285687 75.42857156-164.84571469 168.48-164.84571375 92.98285687 0 168.41142844 73.78285687 168.41142844 164.84571375 0 90.99428531-75.42857156 164.77714312-168.41142844 164.77714313z"  horiz-adv-x="1024" />

    
    <glyph glyph-name="export" unicode="&#58983;" d="M718.701714 360.155429a29.915429 29.915429 0 0 0-43.008-3.657143l-0.512 0.585143-132.754285 122.953142v-503.222857a30.427429 30.427429 0 1 0-60.708572 0V480.548571L348.964571 357.522286a29.549714 29.549714 0 0 0-43.154285 4.608 32.914286 32.914286 0 0 0 2.340571 43.812571l183.661714 170.057143a29.622857 29.622857 0 0 0 40.667429 0l182.637714-170.642286a33.28 33.28 0 0 0 3.584-45.202285zM73.142857 12.141713999999979v753.371429A57.051429 57.051429 0 0 0 129.462857 822.857143h765.074286a57.051429 57.051429 0 0 0 56.32-57.417143v-752.713143a56.685714 56.685714 0 0 0-56.32-57.417143h-157.769143a31.378286 31.378286 0 0 0-28.891429 31.744 31.085714 31.085714 0 0 0 28.891429 31.817143h152.868571V758.857143H134.363429v-739.474286H294.034286a31.963429 31.963429 0 0 0 0-63.634286H129.462857a56.100571 56.100571 0 0 0-56.32 56.466286z"  horiz-adv-x="1024" />

    
    <glyph glyph-name="delete" unicode="&#58984;" d="M590.96 372.12l351.84 351.84a46.08 46.08 0 0 1 0 64.8l-1.92 1.92a46.08 46.08 0 0 1-64.8 0L524.24 438.36 172.4 790.6800000000001a46.08 46.08 0 0 1-64.8 0l-1.92-1.92a45.18 45.18 0 0 1 0-64.8l351.84-351.84-351.84-351.84a46.08 46.08 0 0 1 0-64.8l1.92-1.92a46.08 46.08 0 0 1 64.8 0L524.24 305.4l351.84-351.84a46.08 46.08 0 0 1 64.8 0l1.92 1.92a46.08 46.08 0 0 1 0 64.8L590.96 372.12z"  horiz-adv-x="1024" />

    
    <glyph glyph-name="data-permissions" unicode="&#58985;" d="M765.8 834v-168.75h168.91875v-84.375h-168.91875v-172.4625a239.23125 239.23125 0 0 0-42.1875-474.4125 239.0625 239.0625 0 0 0-42.1875 474.4125L681.3125 834h84.43125z m-42.1875-506.25a154.575 154.575 0 1 1 0-309.375 154.74375 154.74375 0 0 1 154.8 154.6875A154.74375 154.74375 0 0 1 723.6125 327.75z m-380.08125-168.75v-84.375H62V159h281.53125z m112.6125 281.25v-84.375H62V440.25h394.14375z m112.6125 281.25v-84.375H62V721.5h506.75625z"  horiz-adv-x="1024" />

    
    <glyph glyph-name="menu-open" unicode="&#58987;" d="M80.96239999 205.32000000000005h556.8c27.06000001 0 48.90000001 24.12 48.90000001 53.58000001 0 29.52-21.84 53.58000001-48.90000001 53.57999999H80.96239999c-27.12 0-48.96-24.06000001-48.96-53.58000001 0-29.46000001 21.84-53.58000001 48.96-53.57999999z m0 250.2h556.8c27.06000001 0 48.90000001 24.06000001 48.90000001 53.58000001 0 29.46000001-21.84 53.58000001-48.90000001 53.57999999H80.96239999c-27.12 0-48.96-24.12-48.96-53.58000001 0-29.52 21.84-53.58000001 48.96-53.57999999z m3.36 241.32h855.36c28.8 0 52.32 24.06000001 52.32 53.58000001A53.10000001 53.10000001 0 0 1 939.68239999 804H84.32240001A53.10000001 53.10000001 0 0 1 32.00240001 750.42000001c0-29.52 23.52-53.58000001 52.32-53.58000001z m663.36-491.52L992.00240001 384l-244.32 178.68v-357.36z m192-134.16H84.32240001a53.10000001 53.10000001 0 0 1-52.32-53.58000001c0-29.46000001 23.52-53.58000001 52.32-53.57999999h855.36c28.8 0 52.32 24.12 52.32 53.58000001a53.10000001 53.10000001 0 0 1-52.32 53.57999999z"  horiz-adv-x="1024" />

    
    <glyph glyph-name="add" unicode="&#58990;" d="M937.9059808 426.5203808h-390.0952384v383.07352427c0 25.51222827-16.3059808 42.5203808-40.6479232 42.5203808-24.4199616 0-40.64792427-17.00815253-40.64792427-42.5203808v-383.07352427H84.4556192C60.11367573 426.5203808 43.88571413 409.51222827 43.88571413 384c0-25.51222827 16.2279616-42.5203808 40.56990507-42.5203808h382.05927573v-383.07352427c0-25.51222827 16.2279616-42.5203808 40.56990507-42.5203808 24.4199616 0 40.7259424 17.00815253 40.7259424 42.5203808v383.07352427h390.0952384c24.3419424 0 40.56990507 17.00815253 40.56990507 42.5203808 8.192 25.51222827-16.2279616 42.5203808-40.56990507 42.5203808"  horiz-adv-x="1024" />

    
    <glyph glyph-name="menu-close" unicode="&#58991;" d="M916.10225 216.48749999999995h-522c-25.36875 0-45.84375 22.6125-45.84375 50.23125 0 27.675 20.475 50.23125 45.84375 50.23125h522c25.425 0 45.9-22.55625 45.9-50.23125 0-27.61875-20.475-50.23125-45.9-50.23125z m0 234.5625h-522c-25.36875 0-45.84375 22.55625-45.84375 50.23125 0 27.61875 20.475 50.23125 45.84375 50.23125h522c25.425 0 45.9-22.6125 45.9-50.23125 0-27.675-20.475-50.23125-45.9-50.23125z m-3.15 226.2375H111.05225A49.78125 49.78125 0 0 0 62.00225 727.51875C62.00225 755.1375 84.05225 777.75 111.05225 777.75h801.9c27 0 49.05-22.6125 49.05-50.23125a49.78125 49.78125 0 0 0-49.05-50.23125zM291.05225 216.48749999999995L62.00225 384l229.05 167.5125v-335.025z m-180-125.775h801.9c27 0 49.05-22.55625 49.05-50.23125a49.78125 49.78125 0 0 0-49.05-50.23125H111.05225A49.78125 49.78125 0 0 0 62.00225 40.481250000000045c0 27.675 22.05 50.23125 49.05 50.23125z"  horiz-adv-x="1024" />

    
    <glyph glyph-name="arrow-double-right" unicode="&#58992;" d="M251.712 153.60000000000002L192 213.312 375.424 396.8 192 580.288 251.776 640l243.2-243.2zM576 153.60000000000002l-59.712 59.712L699.776 396.8 516.288 580.288 576 640l243.2-243.2z"  horiz-adv-x="1024" />

    
    <glyph glyph-name="arrow-small-right" unicode="&#58993;" d="M443.776 153.60000000000002L384 213.37599999999998 567.488 396.8 384 580.2239999999999 443.776 640l243.2-243.2z"  horiz-adv-x="1024" />

    
    <glyph glyph-name="arrow-small-left" unicode="&#58994;" d="M627.2 153.60000000000002l59.712 59.776L503.488 396.8l183.424 183.424L627.2 640 384 396.8z"  horiz-adv-x="1024" />

    
    <glyph glyph-name="more" unicode="&#58995;" d="M119.08571469 315.42857156a87.08571469 87.08571469 0 1 0 0 174.24A87.08571469 87.08571469 0 0 0 119.08571469 315.42857156z m392.09142844 0a87.08571469 87.08571469 0 1 0-1e-8 174.24 87.08571469 87.08571469 0 0 0 0-174.24z m392.09142843 0a87.08571469 87.08571469 0 1 0 0 174.24 87.08571469 87.08571469 0 0 0 0-174.24z"  horiz-adv-x="1024" />

    
    <glyph glyph-name="unlock" unicode="&#58996;" d="M787.52857168 484.15714248c27.83571416 2.44285752 55.54285752-6.75 76.5-25.71428496 20.89285752-18.9 33.10714248-45.9 33.68571416-74.44285752v-337.5c0-62.1-49.37142832-112.5-110.18571416-112.5H236.47142832C175.65714248-66 126.28571416-15.600000000000023 126.28571416 46.5V384c0.45 28.60714248 12.66428584 55.73571416 33.62142832 74.7a99 99 0 0 0 76.56428584 25.45714248h55.8V609c0 120.15 92.25 218.25 208.35 224.67857168L512.70714248 834c121.75714248 0 220.43571416-100.73571416 220.43571504-225v-4.5s4.75714248-22.5-30.4714292-22.5c-35.29285752 0-29.37857167 22.5-29.3785708 22.5C671.10714248 695.01428584 601.29285752 768.75 512.64285752 774.02142832c-88.45714248-5.46428584-158.14285752-79.07142832-160.52142919-169.52142832v-120.40714248h435.34285751z m-22.8214292-61.13571416h-506.57142832c-29.37857167 0-73.41428584-23.27142832-73.41428584-51.75v-310.49999999c0-27.38571416 45.51428584-64.92857168 73.41428584-64.92857081h506.25c29.37857167 0 73.47857168 36.38571416 73.47857168 64.9285708l0.32142832 310.5c0 28.47857167-45.51428584 51.75-73.47857168 51.75zM511.35714248 300.36428584c14.72142832 0.19285752 28.92857168-5.65714248 39.40714336-16.2a56.82857168 56.82857168 0 0 0 16.39285664-40.05 54.57857168 54.57857168 0 0 0-27.9-47.57142832v-37.54285752a27.83571416 27.83571416 0 0 0-27.57857081-28.15714248 27.83571416 27.83571416 0 0 0-27.51428583 28.15714248v37.47857167a54.57857168 54.57857168 0 0 0-27.19285752 47.63571417c0 30.79285752 24.23571416 55.86428584 54.38571416 56.25z"  horiz-adv-x="1024" />

    
    <glyph glyph-name="arrow-double-left" unicode="&#58997;" d="M772.224 153.60000000000002l59.776 59.712L648.576 396.8 832 580.288 772.288 640l-243.2-243.2zM448 153.60000000000002l59.712 59.712L324.224 396.8l183.488 183.488L448 640 204.8 396.8z"  horiz-adv-x="1024" />

    
    <glyph glyph-name="log" unicode="&#58998;" d="M139.922286 764.6354289999999l52.150857-0.219429-0.292572-63.414857-47.396571 0.219428-2.706286-689.883428 738.011429-2.779429 2.633143 689.956572-47.469715 0.146285 0.292572 63.414858 52.150857-0.146286c35.254857-0.146286 63.634286-26.697143 63.561143-59.318857l-2.706286-698.587429c0-15.725714-6.875429-30.72-18.870857-41.691428a66.56 66.56 0 0 0-45.202286-17.188572l-747.373714 2.779429a66.486857 66.486857 0 0 0-45.056 17.408 56.905143 56.905143 0 0 0-18.505143 41.837714L75.849143 705.828571c0.073143 15.652571 6.875429 30.72 18.870857 41.691429a66.56 66.56 0 0 0 45.202286 17.188571z m161.060571-535.625143l425.910857-1.389715c10.020571 0 19.456-4.096 25.892572-11.044571a30.134857 30.134857 0 0 0 7.899428-25.380571c-2.340571-14.921143-18.212571-27.062857-34.523428-26.989715l-424.96 1.316572c-16.384 0.073143-32.109714 12.288-34.377143 27.282285a30.134857 30.134857 0 0 0 8.118857 25.307429 35.547429 35.547429 0 0 0 26.038857 10.898286z m0 223.378285l425.910857-1.316571c10.020571 0 19.456-4.096 25.892572-11.117714a30.134857 30.134857 0 0 0 7.899428-25.380572c-2.340571-14.921143-18.212571-27.062857-34.523428-26.916571l-424.96 1.316571c-16.384 0-32.109714 12.288-34.377143 27.209143a30.134857 30.134857 0 0 0 8.118857 25.307429 35.547429 35.547429 0 0 0 26.038857 10.971428z m431.323429 368.493715c16.164571-2.194286 29.257143-16.822857 29.184-31.890286l-0.438857-101.961143c-0.073143-15.067429-13.238857-29.622857-29.403429-31.670857a36.205714 36.205714 0 0 0-27.355429 7.460571 30.72 30.72 0 0 0-11.776 24.064l0.438858 102.838858c0 9.142857 4.388571 17.92 11.995428 23.917714a36.205714 36.205714 0 0 0 27.355429 7.314286z m-426.934857 1.609143c16.091429-2.194286 29.257143-16.822857 29.110857-31.890286l-0.438857-101.961143c0-15.067429-13.165714-29.622857-29.403429-31.670857a36.205714 36.205714 0 0 0-27.355429 7.460571 30.72 30.72 0 0 0-11.702857 24.064l0.438857 102.765715c0 9.216 4.388571 17.993143 11.922286 23.990857a36.205714 36.205714 0 0 0 27.428572 7.314285z m136.850285-58.953143l142.336-0.512c16.310857-0.073143 32.036571-12.288 34.230857-27.209143a30.134857 30.134857 0 0 0-8.045714-25.380572 35.547429 35.547429 0 0 0-25.965714-10.825142l-142.774857 0.512c-19.017143 0.073143-34.230857 14.336-34.157715 31.817142 0.146286 17.554286 15.506286 31.597714 34.377143 31.597715z"  horiz-adv-x="1024" />

    
    <glyph glyph-name="customer-change" unicode="&#59001;" d="M941.494857 66.55999999999995l-112.128-112.128a31.817143 31.817143 0 0 0-44.909714 44.909714l63.634286 63.488H599.771429a29.257143 29.257143 0 1 0 0 58.441143h321.828571a29.257143 29.257143 0 0 0 29.257143-29.257143c0-0.585143-0.292571-1.024-0.292572-1.536a30.72 30.72 0 0 0-9.069714-23.917714zM921.6 179.712H599.771429a29.257143 29.257143 0 0 0-29.257143 29.257143c0 0.585143 0.292571 0.877714 0.292571 1.462857a31.670857 31.670857 0 0 0 8.996572 23.990857L691.931429 346.55085699999995a31.744 31.744 0 0 0 44.909714-44.763428l-63.634286-63.634286H921.6a29.257143 29.257143 0 1 0 0-58.514286zM512 355.108571a380.123429 380.123429 0 0 1-380.342857-379.977142 29.257143 29.257143 0 0 0-58.514286 0 438.564571 438.564571 0 0 0 309.394286 418.962285 233.764571 233.764571 0 0 0-82.358857 294.326857 234.057143 234.057143 0 0 0 443.318857-133.558857A233.984 233.984 0 0 0 512 355.18171400000006zM512 764.342857a175.542857 175.542857 0 0 1-175.542857-175.396571A175.469714 175.469714 0 0 1 512 413.549714 175.469714 175.469714 0 1 1 512 764.342857z"  horiz-adv-x="1024" />

    
    <glyph glyph-name="customer-replace" unicode="&#59003;" d="M890.88 19.529142999999976v192.365714c0 13.165714-11.995429 26.331429-20.041143 35.035429a3547.062857 3547.062857 0 0 1-128 91.867428c-23.990857 13.165714-35.986286 30.573714-35.986286 61.220572V487.497143c0 8.777143 0 21.869714 4.022858 26.258286 35.986286 52.443429 16.018286 113.664 16.018285 166.180571 0 39.350857-28.013714 65.609143-68.022857 65.609143-47.981714 4.388571-80.018286-13.165714-87.990857-56.832-4.022857-48.128-16.018286-100.644571 0-139.995429 19.968-52.516571 11.995429-100.571429 16.018286-148.699428 3.949714-30.646857-8.045714-48.128-32.036572-61.220572-40.009143-26.258286-79.945143-56.905143-123.977143-83.090285-19.968-13.165714-28.013714-30.646857-28.013714-61.293715v-196.754285c0-39.424-11.995429-52.516571-47.981714-52.516572h-239.908572c-28.086857 0-40.082286 13.165714-40.082285 52.516572 0 65.609143-3.949714 135.533714 0 201.142857 0 26.258286 16.018286 56.905143 32.036571 74.386285 23.990857 26.258286 55.954286 43.739429 83.968 65.609143 32.036571 21.869714 40.009143 48.128 23.990857 87.478857-19.968 56.832-16.018286 122.441143-3.949714 183.661715 11.995429 65.609143 71.972571 96.256 135.972571 87.478857 64-8.777143 104.009143-56.832 107.958858-122.441143 0-35.035429 4.022857-69.997714 0-100.644571a228.205714 228.205714 0 0 0-35.986286-69.924572c-4.022857-4.388571-28.013714-4.388571-40.009143 4.388572-8.045714 4.388571-11.995429 30.573714-3.949714 39.350857 23.990857 43.739429 11.995429 91.794286 7.972571 135.533714 0 35.035429-28.013714 43.739429-56.027428 43.739429-31.963429 0-51.931429-17.481143-55.954286-48.054858 0-43.739429-8.045714-87.478857 11.995428-131.218285 11.995429-35.035429 4.022857-83.090286 0-126.829715 0-8.777143-16.018286-21.942857-28.013714-26.331428C138.971429 220.74514299999998 138.971429 220.74514299999998 138.971429 76.36114299999997v-52.443429h204.068571c0 48.128 3.949714 96.256 0 144.384-8.045714 78.701714 19.968 131.218286 79.945143 166.180572 23.990857 13.165714 43.958857 30.646857 68.022857 48.128 35.986286 21.869714 47.981714 69.924571 31.963429 113.664-32.036571 78.774857-28.013714 157.476571-4.022858 236.251428 20.041143 69.924571 87.990857 100.571429 160.036572 87.405715 63.926857-13.092571 115.931429-65.609143 115.931428-139.922286 0-65.609143 11.995429-131.218286-19.968-196.754286-19.968-43.812571 0-83.163429 35.986286-109.421714s71.972571-52.443429 104.009143-78.701714c23.990857-21.942857 35.986286-48.128 35.986286-83.090286v-214.308572c0-35.035429-11.995429-52.516571-44.032-52.516571H526.921143c-24.064 0-48.054857 4.388571-44.032 39.350857 0 30.646857 23.990857 35.035429 47.981714 35.035429h360.009143"  horiz-adv-x="1024" />

    
    <glyph glyph-name="empty" unicode="&#59007;" d="M831.68 561.25714312c18.92571469 0 31.61142844-12.68571469 28.45714312-31.67999999v-468.34285782A88.45714313 88.45714313 0 0 0 771.54285687-27.428571560000023H246.14857156a88.45714313 88.45714313 0 0 0-88.59428625 88.59428625V529.5771431200001c0 18.99428531 12.61714313 31.68 31.61142938 31.68000001s31.68-12.68571469 31.68-31.68v-468.34285782c0-12.68571469 9.46285687-25.37142844 25.37142843-25.37142844h528.48c12.61714313 0 25.30285687 9.53142844 25.30285688 25.37142844v468.34285782c0 18.99428531 12.68571469 31.68 31.68 31.67999999z m-231.08571469-132.96a30.58285687 30.58285687 0 0 0 44.29714313 1e-8 30.58285687 30.58285687 0 0 0 0-44.29714313L553.14285687 292.25142844000004l94.97142844-94.97142844a30.58285687 30.58285687 0 0 0 0-44.29714313 34.21714312 34.21714312 0 0 0-22.14857062-9.53142843 34.21714312 34.21714312 0 0 0-22.21714313 9.53142843L508.84571469 247.88571469l-94.97142938-94.90285781a34.21714312 34.21714312 0 0 0-22.14857062-9.53142844 34.21714312 34.21714312 0 0 0-22.14857157 9.53142844 30.58285687 30.58285687 0 0 0 1e-8 44.29714312l94.97142843 94.97142844L372.73142844 384a30.58285687 30.58285687 0 0 0 0 44.29714313 30.58285687 30.58285687 0 0 0 44.29714312 0l91.81714313-91.74857157zM622.74285688 795.42857156c34.83428531 0 63.29142844-28.45714312 63.29142843-63.29142844v-53.82857156h205.71428625c18.99428531 0 31.68-12.61714313 31.68-31.61142844s-12.68571469-31.68-31.68-31.68H132.25142844C113.25714312 615.08571469 100.57142844 627.70285687 100.57142844 646.69714313s12.68571469 31.61142844 31.68 31.61142843h205.71428625v53.82857157c0 34.83428531 28.45714312 63.29142844 63.29142844 63.29142843z m-1e-8-63.29142844h-221.48571374v-47.45142843h221.48571374v47.45142843z"  horiz-adv-x="1024" />

    
    <glyph glyph-name="trash" unicode="&#59009;" d="M695.369143 822.857143c18.139429 0 32.768-13.750857 32.768-30.64685701v-115.56571499h82.50514301c1.462857 0 2.92571401 0 4.38857099-0.219428h103.13142899c18.06628601 0 32.694857-13.750857 32.69485701-30.72 0-16.822857-14.628571-30.57371399-32.768-30.573714h-75.776l-24.137143-616.886858c-1.097143-29.696-27.209143-53.248-58.953143-53.101714H264.777143c-31.744-0.14628601-57.782857 23.40571401-58.88 53.101714l-24.137143 616.886858H105.910857C87.771429 615.131429 73.142857 628.88228599 73.142857 645.77828599c0 16.896 14.628571 30.646857 32.768 30.64685701h103.058286a34.96228601 34.96228601 0 0 0 4.38857101 0.29257101h82.50514299v115.56571499c0 16.822857 14.628571 30.57371399 32.768 30.573714z m81.18857101-207.725714H247.369143l23.771428-608.694858h481.86514301l23.69828599 608.694858z m-384.43885701-66.998858a34.742857 34.742857 0 0 0 32.768 0.87771499c10.313143-5.193143 16.822857-15.140571 17.188572-26.112l13.165714-422.18057198c0.512-16.896-13.750857-31.012571-31.817143-31.52457101h-0.950857c-17.77371399 0-32.256 13.16571399-32.768 29.76914301l-13.165714 422.18057099a30.208 30.208 0 0 0 15.579428 26.989714z m222.793143 4.534858c8.630857-0.292571 16.896-3.657143 22.89371401-9.58171501 5.924571-5.924571 9.142857-13.824 8.92342899-21.94285699l-13.165714-422.18057101c-0.438857-16.603429-14.99428601-29.769143-32.694858-29.76914299h-0.95085699c-18.139429 0.512-32.329143 14.628571-31.81714301 31.451428l13.16571501 422.25371499c0.438857 16.896 15.579429 30.208 33.64571399 29.76914301z m47.76228601 208.896H361.32571401v-84.84571501h301.34857198v84.84571501z"  horiz-adv-x="1024" />

    
    <glyph glyph-name="material-manage" unicode="&#59011;" d="M513.12443575-65.60512587999995l4.72499472-0.39374912a30.03746221 30.03746221 0 0 0-14.06248242 3.4312456l-0.50625 0.3375-426.59946651 234.78720645A27.73121572 27.73121572 0 0 0 62 196.68829629000004V616.7627715799999l0.44999911 4.16249473a27.67496572 27.67496572 0 0 0 2.02499737 6.41249209l-0.44999911-1.12499824a27.44996572 27.44996572 0 0 0 3.8812456 6.63749121l0.44999912 0.56249912a23.06247099 23.06247099 0 0 0 5.06249385 4.78124385 36.16870518 36.16870518 0 0 0 4.38749472 2.64374736l1.12499825 0.50624913L505.47444541 831.41250352a30.37496221 30.37496221 0 0 0 25.25621836-0.28125001L945.68639521 635.43774786a27.89996484 27.89996484 0 0 0 16.31247979-24.58121924l-0.16875-3.09374562a27.05621661 27.05621661 0 0 0 0.16875-2.92499648v-436.04945507a27.84371484 27.84371484 0 0 0-15.74998066-24.74996924L532.81191114-62.06138026999997a29.53121308 29.53121308 0 0 0-0.78749825-0.44999913l-0.675-0.28125-0.78749826-0.39374912a29.81246309 29.81246309 0 0 0-3.09374646-1.23749824l3.88124472 1.63124736a30.09371221 30.09371221 0 0 0-18.22497714-2.81249648z m390.4307622 629.38046338L547.04314356 381.24431602000004v-373.16203331l356.51205439 177.46852765V563.7753375zM120.38742705 569.4565804700001l0.05625-356.5683044 368.15578946-202.55599687V381.24431602000004L120.38742705 569.4565804700001z m84.37489453-124.64984356l203.62474512-108.28111464c11.58748594-6.18749209 17.32497803-19.12497627 13.94998331-31.44371133a29.02496396 29.02496396 0 0 0-28.23746485-20.92497364v-0.16875a30.26246221 30.26246221 0 0 0-14.17498243 3.48749561L176.35610674 395.92554756a27.33746572 27.33746572 0 0 0-11.30623593 38.02495254 29.92496221 29.92496221 0 0 0 39.71245077 10.85623681z m312.74960889 330.29958692L156.49988223 614.2315251l361.29329824-184.49976973 350.99956143 179.662275-351.33706143 165.71229346z"  horiz-adv-x="1024" />

    
    <glyph glyph-name="customer-setting" unicode="&#59012;" d="M512.65290078 833.99887763c59.78611758 0 115.97945362-23.29693769 158.25076524-65.68052343a222.75240644 222.75240644 0 0 0 65.56824843-158.41917686 222.80854395 222.80854395 0 0 0-65.56824843-158.47531347 222.19103497 222.19103497 0 0 0-158.30690186-65.68052344h-1.68411621a33.12094747 33.12094747 0 0 0-5.05234776-0.33682324c-208.10059805 0-377.46652852-169.53434209-377.46652851-377.9717625a386.33620606 386.33620606 0 0 1 1.68411621-35.53484766 33.00867334 33.00867334 0 1 0-65.68052344-6.1750916 441.79975898 441.79975898 0 0 0 32.95253584 214.50023877A442.52954209 442.52954209 0 0 0 192.27790479 321.46624747 441.85589561 441.85589561 0 0 0 376.23950703 432.1688042a222.80854395 222.80854395 0 0 0-87.40561992 177.73037314c0 59.8422542 23.24080019 116.14786523 65.51211182 158.47531348A222.24717247 222.24717247 0 0 0 512.65290078 833.99887763z m211.30041885-505.23479384a41.20470439 41.20470439 0 0 1 81.34280156-0.22454912c28.34928545-5.89440586 54.4530832-17.79549258 77.02023691-34.24369131a41.20470439 41.20470439 0 0 1 54.73376981-60.40362656c11.22744023-19.14278467 19.19892217-40.02582305 23.57762345-61.75091953a41.20470439 41.20470439 0 0 1-0.22454825-80.61301846 199.28705801 199.28705801 0 0 0-27.05813084-66.69099228 41.20470439 41.20470439 0 0 1-54.84604308-57.14766914c-21.72509648-15.15704414-46.65001289-26.10379776-73.53973124-31.66138038A41.20470439 41.20470439 0 0 1 724.29014201-64.19631211000001a199.39933213 199.39933213 0 0 0-73.82041701 31.38069463 41.20470439 41.20470439 0 0 1-55.29514131 57.25994326 199.28705801 199.28705801 0 0 0-27.28267822 66.85940479A41.20470439 41.20470439 0 0 1 567.66735635 172.30970887c4.43483877 21.8935081 12.5185957 42.8326831 23.85831006 62.03160528a41.20470439 41.20470439 0 0 1 55.01445468 60.40362658A199.45546875 199.45546875 0 0 0 724.00945625 328.76408377999996z m40.19423467-98.24009941a98.24009854 98.24009854 0 1 1 0-196.48019707 98.24009854 98.24009854 0 0 1 0 196.48019707zM512.65290078 767.98153095a158.13849023 158.13849023 0 0 1-157.91394111-158.08235361A158.13849023 158.13849023 0 0 1 512.65290078 451.81682461a158.13849023 158.13849023 0 0 1 157.8578045 158.08235273A158.13849023 158.13849023 0 0 1 512.65290078 767.98153095z"  horiz-adv-x="1024" />

    
    <glyph glyph-name="ban" unicode="&#59013;" d="M512 822.857143l0 0z m370.249143-438.857143a368.713143 368.713143 0 0 0-85.357714-236.397714L275.529143 668.964571A370.249143 370.249143 0 0 0 882.249143 384zM141.677714 384a368.713143 368.713143 0 0 0 85.357715 236.470857l521.362285-521.362286A370.249143 370.249143 0 0 0 141.677714 384z"  horiz-adv-x="1024" />

    
    <glyph glyph-name="ensure" unicode="&#59016;" d="M512 834c248.625 0 450-201.375 450-450s-201.375-450-450-450-450 201.375-450 450 201.375 450 450 450z m0-72.60000029A377.1 377.1 0 0 1 134.60000029 384 377.1 377.1 0 0 1 512 6.600000290000025 377.1 377.1 0 0 1 889.39999971 384 377.1 377.1 0 0 1 512 761.39999971zM728.97499971 526.49999971a25.875 25.875 0 0 0 0-37.42499971L456.57500029 240.74999971A35.25000029 35.25000029 0 0 0 436.69999971 233.99999971a29.85000029 29.85000029 0 0 0-21.22499971 8.02500029L294.80000029 366.225a24.75 24.75 0 0 0 1.49999942 37.35c11.25 9.37500029 29.77499971 9.37500029 39.75000029-1.27500029l102.07500029-104.24999971L689.3 526.49999971a29.99999971 29.99999971 0 0 0 39.75000029 0z"  horiz-adv-x="1024" />

    
    <glyph glyph-name="remove" unicode="&#59018;" d="M543.158857 822.857143c22.674286 0 39.643429-17.261714 39.643429-40.228572 0-23.113143-17.042286-40.374857-39.643429-40.374857H197.705143c-22.674286 0-42.422857-17.261714-42.422857-40.228571v-630.272c0-23.04 19.748571-40.228571 42.422857-40.228572h345.453714c22.674286 0 39.643429-23.04 39.643429-46.08S565.76-54.85714299999995 543.158857-54.85714299999995H197.705143A124.269714 124.269714 0 0 0 73.142857 68.90057100000001V699.099429C73.142857 768.146286 129.755429 822.857143 197.705143 822.857143z m152.868572-212.918857c14.189714 17.261714 39.643429 17.261714 56.612571 0l186.88-189.952c5.705143-8.630857 11.337143-17.261714 11.337143-23.04a37.302857 37.302857 0 0 0-11.337143-28.745143L752.64 178.249143a40.228571 40.228571 0 0 0-28.306286-11.483429 40.228571 40.228571 0 0 0-28.306285 11.483429c-16.969143 14.409143-16.969143 40.228571 0 57.563428l116.077714 117.979429H361.910857a39.058286 39.058286 0 0 0-39.643428 40.228571c0 23.04 17.042286 40.374857 39.643428 40.374858h450.194286L696.027429 552.374857c-16.969143 14.336-16.969143 40.228571 0 57.563429z"  horiz-adv-x="1024" />

    
    <glyph glyph-name="terminal-info" unicode="&#59021;" d="M877.909625 834H146.097125C123.765875 834 102.503375 824.26875 86.584625 807A96.69375 96.69375 0 0 1 62.003375 741.75v-534.09375c0-24.46875 8.8875-47.86875 24.6375-65.25 15.75-17.325 37.125-27 59.45625-27h328.8375l-0.5625-112.78125h-192.375c-14.79375 0-31.66875-11.5875-31.66875-36 0-24.35625 23.85-32.625 31.66875-32.625h458.55c14.7375 0 27.5625 14.5125 28.85625 30.375 1.29375 15.91875-3.0375 22.1625-8.325 28.40625a26.8875 26.8875 0 0 1-20.5875 9.84375h-194.625l0.5625 112.78125h331.48125c22.33125 0 43.65 9.73125 59.45625 27a97.3125 97.3125 0 0 1 24.6375 65.25V741.75C962.003375 792.7125 924.315875 834 877.909625 834z m16.3125-621.5625c0-16.9875-12.54375-30.76875-28.0125-30.76875H161.003375a27.16875 27.16875 0 0 0-19.85625 9 32.2875 32.2875 0 0 0-8.2125 21.76875l-0.95625 124.425h761.2875l0.95625-124.425zM131.753375 409.70625l0.39375 322.70625c0 17.49375 12.31875 31.725 27.45 31.725h704.98125c7.3125 0 14.23125-3.375 19.40625-9.225a34.3125 34.3125 0 0 0 7.9875-22.5l-0.39375-322.70625H131.753375z"  horiz-adv-x="1024" />

    
    <glyph glyph-name="org-manage" unicode="&#59023;" d="M884.9375 278.25h-57.0375V341.30624998999997c0 35.1-31.95 63.73125001-71.26875001 63.73125001H543.78125001V489.80625001h65.41874999a77.0625 77.0625 0 0 1 77.0625 76.49999998v191.25000002A77.0625 77.0625 0 0 1 609.2 834H416.4875a77.0625 77.0625 0 0 1-77.0625-76.5v-191.25a77.0625 77.0625 0 0 1 77.0625-76.44375001H478.25v-84.71249998H269c-39.2625 0-71.26875001-28.63125001-71.26875001-63.7875V278.25H139.0625A77.0625 77.0625 0 0 1 62 201.75v-191.19375001A77.0625 77.0625 0 0 1 139.0625-66h192.76875001a77.0625 77.0625 0 0 1 77.06249998 76.5v191.25a77.0625 77.0625 0 0 1-77.0625 76.5h-68.625V341.30624998999997a5.625 5.625 0 0 0 5.85 5.0625h487.57500002a5.625 5.625 0 0 0 5.73749998-5.0625v-63.16874999h-70.2a77.0625 77.0625 0 0 1-77.0625-76.5v-191.19375001a77.0625 77.0625 0 0 1 77.0625-76.49999998h192.76875001A77.0625 77.0625 0 0 1 962 10.5v191.25a77.0625 77.0625 0 0 1-77.0625 76.5zM404.9 566.25v191.25a11.7 11.7 0 0 0 11.5875 11.475h192.7125a11.7 11.7 0 0 0 11.53125001-11.475v-191.25a11.7 11.7 0 0 0-11.53125001-11.41875001H416.4875a11.7 11.7 0 0 0-11.5875 11.47500002z m-61.5375-364.5v-191.25a11.7 11.7 0 0 0-11.53125001-11.475H139.0625a11.7 11.7 0 0 0-11.53125001 11.475v191.25a11.7 11.7 0 0 0 11.53125001 11.41875001h192.76875001a11.7 11.7 0 0 0 11.53124999-11.47500002z m553.10625001-191.25a11.7 11.7 0 0 0-11.53125001-11.475h-192.76874999a11.7 11.7 0 0 0-11.53125001 11.475v191.25a11.7 11.7 0 0 0 11.53125001 11.41875001h192.76874999a11.7 11.7 0 0 0 11.53125001-11.47500002v-191.19374999z"  horiz-adv-x="1024" />

    
    <glyph glyph-name="edit" unicode="&#59024;" d="M535.259429 822.857143c25.380571 0 46.299429-14.848 46.372571-40.96 0-26.112-22.674286-38.985143-46.372571-39.058286l-379.099429 0.146286v-721.042286h714.459429V407.405714c1.682286 20.406857 13.385143 38.985143 40.082285 38.985143 26.697143 0 40.082286-26.770286 40.082286-38.985143v-416.182857a45.787429 45.787429 0 0 0-45.933714-45.933714H119.222857A45.641143 45.641143 0 0 0 73.142857-8.850285999999983L73.142857 776.9234289999999A45.714286 45.714286 0 0 0 119.003429 822.857143z m340.845714 0a45.348571 45.348571 0 0 0 32.182857-77.312l-494.665143-494.445714a45.202286 45.202286 0 0 0-63.853714-0.146286 45.348571 45.348571 0 0 0-0.073143 64.146286l494.445714 494.445714A45.202286 45.202286 0 0 0 876.178286 822.857143z"  horiz-adv-x="1024" />

    
    <glyph glyph-name="add-circle" unicode="&#59025;" d="M512 834a450 450 0 0 0 450-450 450.5625 450.5625 0 0 0-450-450A450 450 0 1 0 512 834z m0-72.5625A377.4375 377.4375 0 1 1 889.4375 384 377.83125 377.83125 0 0 1 512 761.4375z m0-158.9625c20.08125 0 36.3375-16.3125 36.3375-36.3375v-145.8h145.8a36.3375 36.3375 0 1 0 0-72.675H548.3375v-145.8a36.3375 36.3375 0 1 0-72.675 0V347.6625H329.8625a36.3375 36.3375 0 0 0 0 72.675h145.8V566.1375c0 20.08125 16.3125 36.3375 36.3375 36.3375z"  horiz-adv-x="1024" />

    
    <glyph glyph-name="arrow-right" unicode="&#59026;" d="M263.73455 718.53l348.3-334.08L263.55455 50.190000000000055A65.7 65.7 0 0 1 261.75455-45.299999999999955a72.63 72.63 0 0 1 101.43 0l398.34 381.87a65.7 65.7 0 0 1 0 95.4L363.18455 813.75A72.45 72.45 0 0 1 263.73455 814.74a65.43 65.43 0 0 1 0-96.3z"  horiz-adv-x="1024" />

    
    <glyph glyph-name="position-level" unicode="&#59028;" d="M817.1036 804c39.06 0 79.8-26.64 94.92-61.86l72.42-170.64c14.52-34.38 7.62-80.16-16.62-108.78L569.6036-8.639999999999986a76.2 76.2 0 0 0-57.72-27.36c-21.96 0-43.02 9.96-57.72 27.36L56.0036 462.36c-23.88 28.2-30.96 75-16.62 108.78L111.8036 742.02C126.7436 777.36 167.4236 804 206.6036 804z m0.12-79.8H206.7836c-6.3 0-16.86-6.9-19.26-12.6L115.1636 540.8399999999999c-3-6.84-0.72-22.02 4.08-27.6l392.7-464.46 392.7 464.76a33.78 33.78 0 0 1 4.2 27.6L836.4236 711.6c-2.4 5.4-13.08 12.48-19.26 12.48z m-162-122.34c22.68 0 40.98-17.82 40.98-39.96a40.5 40.5 0 0 0-41.04-39.96H368.6036a40.5 40.5 0 0 0-40.98 39.96c0 22.14 18.42 39.96 40.98 39.96z"  horiz-adv-x="1024" />

    
    <glyph glyph-name="role-manage" unicode="&#59031;" d="M512.65290078 833.99887763c59.78611758 0 115.97945362-23.29693769 158.25076524-65.68052343a222.75240644 222.75240644 0 0 0 65.56824843-158.41917686 222.80854395 222.80854395 0 0 0-65.56824843-158.47531347 222.19103497 222.19103497 0 0 0-158.30690186-65.68052344h-1.68411621a33.12094747 33.12094747 0 0 0-5.05234776-0.33682324c-208.10059805 0-377.46652852-169.53434209-377.46652851-377.9717625a386.33620606 386.33620606 0 0 1 1.68411621-35.53484766 33.00867334 33.00867334 0 1 0-65.68052344-6.1750916 441.79975898 441.79975898 0 0 0 32.95253584 214.50023877A442.52954209 442.52954209 0 0 0 192.27790479 321.46624747 441.8558956 441.8558956 0 0 0 376.23950703 432.1688042a222.80854395 222.80854395 0 0 0-87.40561992 177.73037314c0 59.8422542 23.24080019 116.14786523 65.51211182 158.47531348A222.24717247 222.24717247 0 0 0 512.65290078 833.99887763z m414.29253076-813.98939062a33.68231982 33.68231982 0 0 0 0-67.36463876H601.34967617a33.68231982 33.68231982 0 0 0 0 67.36463876h325.59575537z m-56.13719854 140.34299854a33.68231982 33.68231982 0 0 0 0-67.36463965H601.34967617a33.68231982 33.68231982 0 0 0 0 67.36463965h269.45855683z m-56.13719941 140.34299853a33.68231982 33.68231982 0 0 0 0-67.36463965H601.34967617a33.68231982 33.68231982 0 0 0 0 67.36463965h213.32135742zM512.65290078 767.98153096a158.13849023 158.13849023 0 0 1-157.91394111-158.08235362A158.13849023 158.13849023 0 0 1 512.65290078 451.81682461a158.13849023 158.13849023 0 0 1 157.8578045 158.08235273A158.13849023 158.13849023 0 0 1 512.65290078 767.98153096z"  horiz-adv-x="1024" />

    
    <glyph glyph-name="down-input" unicode="&#59035;" d="M453.696 196.03200000000004L236.672 449.216A76.8 76.8 0 0 0 294.976 576h434.048a76.8 76.8 0 0 0 58.304-126.72l-216.96-253.248a76.8 76.8 0 0 0-116.672 0z"  horiz-adv-x="1024" />

    
    <glyph glyph-name="customer-add" unicode="&#59036;" d="M656.457143 281.16114300000004a387.94971399 387.94971399 0 0 1-374.71085699 11.117714 386.19428599 386.19428599 0 0 1-208.45714301-310.85714301 33.64571399 33.64571399 0 0 1 30.939428-36.27885699h2.779429a33.64571399 33.64571399 0 0 1 33.499429 30.866286 318.171429 318.171429 0 0 0 171.885714 257.024 319.707429 319.707429 0 0 0 309.54057101-9.65485701 33.718857 33.718857 0 1 1 35.18171499 57.78285701h-0.731429zM458.459429 397.67771399a213.13828601 213.13828601 0 0 1 197.12 130.99885701 212.187429 212.187429 0 0 1-45.93371501 231.78971499 213.504 213.504 0 0 1-232.30171399 46.22628501c-79.72571401-32.91428599-131.657143-110.44571399-131.657143-196.388571a212.84571399 212.84571399 0 0 1 212.772572-212.62628601z m0 357.96114301a145.700571 145.700571 0 0 0 134.875428-89.526857c22.67428599-54.272 10.24-116.88228599-31.378286-158.500571-41.691429-41.691429-104.30171401-54.12571401-158.793142-31.670858a145.334857 145.334857 0 0 0 55.296 279.698286z m461.019428-621.787428h-77.38514299V211.23657100000003a33.572571 33.572571 0 0 1-67.291428 0v-77.385142H697.49028599a33.718857 33.718857 0 0 1 0-67.291429h77.45828501v-77.385143a33.572571 33.572571 0 0 1 67.218286 0v77.458286h77.385143a33.718857 33.718857 0 0 1 0 67.218286z"  horiz-adv-x="1024" />

    
    <glyph glyph-name="arrow-down" unicode="&#59038;" d="M1126.31855429 587.41172134l-273.7222914-285.37318639L578.72649176 587.55920107A53.8300842 53.8300842 0 0 1 500.48852005 589.0339979600001a59.50805216 59.50805216 0 0 1 0-83.10480158l312.87814697-326.37253818a53.8300842 53.8300842 0 0 1 78.16423184 0l312.8781474 326.37253818a59.36057243 59.36057243 0 0 1 0.73739824 81.48252495 53.6088646 53.6088646 0 0 1-78.90163008 0z"  horiz-adv-x="1706" />

    
    <glyph glyph-name="unlink" unicode="&#59039;" d="M691.56571401-52.516571a41.179429 41.179429 0 0 0-48.93257101 17.700571l-2.413714 5.12-306.907429 800.182857a36.937143 36.937143 0 0 0 6.436571 38.473143 41.545143 41.545143 0 0 0 38.4 13.238857 40.228571 40.228571 0 0 0 28.379429-20.187428l2.340571-5.412572 306.834286-800.03657099a37.52228601 37.52228601 0 0 0-18.72457099-46.81142901l-5.412572-2.267428z m5.85142899 315.83085701l-4.461714 0.95085699-29.622858 76.214857 163.986286 154.185143a133.924571 133.924571 0 0 1-2.779428 193.974857 152.576 152.576 0 0 1-196.754286 9.142857l-7.972572-6.72914301-70.07085699-61.07428499-27.355428 77.165714 40.74057099 38.765714a235.593143 235.593143 0 0 0 219.428572 55.73485699c78.262857-19.968 139.62971399-78.116571 160.621714-152.64914299 19.748571-70.50971401 0.87771401-146.212571-49.517714-199.241142l-9.28914299-9.28914301L697.49028599 263.31428599000003z m-236.544-224.10971501c-88.72228601-84.11428601-232.59428601-84.11428601-321.24342901 0a210.432 210.432 0 0 0-65.82857099 136.77714301L73.142857 188.85485700000004v6.217143c0.87771401 52.224 21.211429 102.180571 57.05142901 140.068571l9.435428 9.508572 212.772572 195.510857 27.355428-76.580571-182.85714301-173.568a134.29028601 134.29028601 0 0 1-0.804571-197.19314299c54.784-52.37028601 142.48228599-55.076571 200.411429-7.68000002l7.753142 6.80228501 88.64914301 80.164572 28.01371499-73.43542899-0.658286-3.072-59.392-56.46628501v0.073142z"  horiz-adv-x="1024" />

    
    <glyph glyph-name="message" unicode="&#59040;" d="M512.00128584 834c249.55714248 0 450-189.9 450-416.95714248 0-227.05714248-200.44285752-416.95714248-450-416.95714336H426.11557168l-130.95-61.97142832C291.11557168-66 287.00128584-66 282.95128584-66c-8.22857167 0-12.34285752 0-16.39285752 4.11428584-8.16428584 4.11428584-16.39285752 16.52142833-16.39285664 24.81428583-8.16428584 57.79285752-24.55714248 127.92857168-32.7214292 140.33571417A392.27142832 392.27142832 0 0 0 62.00128584 416.97857168C62.00128584 648.21428584 262.44414248 834 512.00128584 834z m4.11428583-61.90714248c-216.83571416 0-388.67142833-161.03571416-388.67142919-355.05 0-103.24285752 45-202.30714248 130.95-268.39285752 16.32857167-12.34285752 32.72142832-57.79285752 45-136.22142832l102.21428584 45.45c4.11428584 4.11428584 8.22857167 4.11428584 12.27857168 4.11428584H512.00128584c212.78571416 0 392.78571416 160.97142832 392.78571416 355.05 0 194.01428584-171.9 355.05-388.67142832 355.05zM704.21557168 363.36428584v-61.90714336H315.60842833v61.90714336h388.67142919z m0 169.26428584v-61.90714336H315.60842833v61.90714335h388.67142919z"  horiz-adv-x="1024" />

    
    <glyph glyph-name="reset" unicode="&#59041;" d="M961.62499971 381.29999999999995a40.5 40.5 0 1 1-81-0.29999971h-0.37499942a367.35000029 367.35000029 0 0 0-78.3-224.25000029 369 369 0 0 0-517.5-62.62499971 368.84999971 368.84999971 0 0 0-62.55 517.34999971 369 369 0 0 0 592.79999942-17.25000029h-73.87499971c-22.5 0-40.79999971-18.29999971-40.87500029-40.87499942v-3.00000058c0-22.5 18.37500029-40.87500029 40.87500029-40.87499942h178.12500029c22.5 0 40.87500029 18.37500029 40.87499942 40.87499942V728.5499997100001c-0.07499971 22.5-18.37500029 40.79999971-40.87499942 40.87500029h-3.00000058c-22.5 0-40.79999971-18.29999971-40.87499942-40.87500029v-78.89999942A451.27500029 451.27500029 0 0 1 629.9 818.40000029a451.05000029 451.05000029 0 0 1-335.99999971-40.725A446.77500029 446.77500029 0 0 1 158.00000029 661.8000002900001 447.14999971 447.14999971 0 0 1 65.375 330.225c6.975-58.05 24.75-113.24999971 52.94999971-164.09999971a446.77500029 446.77500029 0 0 1 115.95000058-135.9 447.14999971 447.14999971 0 0 1 331.49999971-92.55000058 447.22500029 447.22500029 0 0 1 164.09999971 53.02500029 446.77500029 446.77500029 0 0 1 135.9 115.875 447.14999971 447.14999971 0 0 1 95.77500029 274.725z"  horiz-adv-x="1024" />

    
    <glyph glyph-name="arrow-left" unicode="&#59042;" d="M760.25482315 49.50216445000001l-348.28572042 334.06630313L760.43481612 717.81476367A65.69730615 65.69730615 0 0 1 762.23474229 813.30084902a72.62702227 72.62702227 0 0 1-101.4258419 1e-8L262.48523223 431.44650498a65.69730615 65.69730615 0 0 1-1e-8-95.39608886l398.32366817-381.85434405c27.26888203-26.54891191 71.72705918-26.99889346 99.44592276-0.89996309a65.42731758 65.42731758 0 0 1 0 96.29605196z"  horiz-adv-x="1024" />

    


  </font>
</defs>
</svg>
